<svg xmlns="http://www.w3.org/2000/svg" viewBox="0 0 22.7 20.1" enable-background="new 0 0 22.7 20.1">
  <style type="text/css">.st0{fill:#CC0000;} .st1{fill:#FFFFFF;}</style>
  <path class="st0" d="M11.4 20.1h-9.8c-1.2 0-2-1.3-1.4-2.4l4.9-8.5 4.9-8.4c.6-1.1 2.1-1.1 2.8 0l4.9 8.5 4.9 8.5c.6 1.1-.2 2.4-1.4 2.4h-9.8z"/>
  <path class="st1" d="M10.1 6.3h2.5c.3 0 .5.2.4.5l-.4 6.2c0 .2-.2.4-.4.4h-1.5c-.2 0-.4-.2-.4-.4l-.6-6.2c0-.3.2-.5.4-.5zM10.2 17.1c-.3-.3-.5-.7-.5-1.2s.2-.9.5-1.2c.3-.3.7-.5 1.2-.5s.9.2 1.2.5c.3.3.5.7.5 1.2s-.2.8-.5 1.2c-.3.3-.7.5-1.2.5-.5-.1-.9-.2-1.2-.5z"/>
</svg>
