<svg xmlns="http://www.w3.org/2000/svg" viewBox="0 0 20.7 20.2" enable-background="new 0 0 20.7 20.2"><style type="text/css">.st0{fill:url(#SVGID_1_);} .st1{fill:#FFFFFF;}</style><linearGradient id="SVGID_1_" gradientUnits="userSpaceOnUse" x1="730.271" y1="-1876.067" x2="750.959" y2="-1876.067" gradientTransform="matrix(-1 0 0 -1 750.959 -1865.986)"><stop offset="0" stop-color="#EA0000"/><stop offset="1" stop-color="#790000"/></linearGradient><path class="st0" d="M3.2 0h14.3c1.8 0 3.2 1.4 3.2 3.2v13.8c0 1.8-1.4 3.2-3.2 3.2h-14.3c-1.8 0-3.2-1.5-3.2-3.2v-13.8c0-1.8 1.4-3.2 3.2-3.2z"/><path class="st1" d="M11.5 6.5c.1 0 .2 0 .2.1.1.1.1.3 0 .4l-3 3 3 3c.1.1.1.3 0 .4-.1.1-.3.1-.4 0l-3.2-3.2c-.1.1-.1 0-.1-.1v-.1s0-.1.1-.2l3.2-3.2c.1-.1.2-.1.2-.1z"/></svg>