<svg xmlns="http://www.w3.org/2000/svg" viewBox="0 0 16.9 16.9" enable-background="new 0 0 16.9 16.9"><style type="text/css">.st0{fill:#F3F2F0;}</style><path class="st0" d="M11.8 13.1l3.5 3.5c.4.4 1 .4 1.4 0 .4-.4.4-1 0-1.4l-3.4-3.4-.9-.6.5-.9c1.5-2.6 1.1-6.1-1.1-8.3-2.7-2.7-7.1-2.7-9.8 0-2.7 2.7-2.7 7.1 0 9.7 2.2 2.2 5.7 2.7 8.4 1.1l.9-.5.5.8zm.4-6.2c0 1.4-.6 2.8-1.6 3.8s-2.4 1.6-3.8 1.6-2.7-.5-3.8-1.6c-1-1-1.6-2.3-1.6-3.8 0-1.4.6-2.8 1.6-3.8s2.3-1.6 3.8-1.6c1.4 0 2.8.6 3.8 1.6s1.6 2.4 1.6 3.8z"/></svg>