<?xml version="1.0" standalone="no"?>
<!DOCTYPE svg PUBLIC "-//W3C//DTD SVG 20010904//EN"
 "http://www.w3.org/TR/2001/REC-SVG-20010904/DTD/svg10.dtd">
<svg version="1.0" xmlns="http://www.w3.org/2000/svg"
 width="1280.000000pt" height="692.000000pt" viewBox="0 0 1280.000000 692.000000"
 preserveAspectRatio="xMidYMid meet">
<metadata>
Created by potrace 1.15, written by Peter Selinger 2001-2017
</metadata>
<g transform="translate(0.000000,692.000000) scale(0.100000,-0.100000)"
fill="#ffffff" style="opacity: 0.1; z-index: -1;" stroke="none">
<path d="M0 6885 c0 -19 4 -35 8 -35 4 0 23 16 42 35 l34 35 -42 0 c-41 0 -42
-1 -42 -35z"/>
<path d="M61 6875 c-24 -25 -48 -45 -53 -45 -4 0 -8 -18 -8 -40 0 -22 3 -40 8
-40 25 0 162 114 183 153 9 15 4 17 -38 17 -43 -1 -52 -5 -92 -45z"/>
<path d="M230 6831 c-65 -67 -102 -97 -157 -125 -67 -33 -73 -39 -73 -67 0
-29 2 -31 28 -24 49 11 133 69 177 120 50 59 125 165 125 177 0 18 -19 3 -100
-81z"/>
<path d="M315 6853 c-22 -36 -74 -101 -115 -143 -62 -64 -86 -81 -137 -100
-35 -13 -63 -29 -63 -36 0 -19 68 8 140 56 54 36 158 160 209 250 37 66 9 44
-34 -27z"/>
<path d="M430 6880 c-33 -64 -165 -234 -214 -273 -47 -39 -159 -97 -188 -97
-9 0 -20 -5 -24 -11 -5 -9 6 -10 42 -4 126 18 228 83 347 220 68 78 147 184
147 199 0 3 -20 6 -45 6 -42 0 -46 -2 -65 -40z"/>
<path d="M546 6888 c-37 -65 -145 -194 -218 -264 -84 -80 -151 -117 -256 -141
-63 -15 -72 -20 -72 -40 0 -27 -1 -27 92 -8 159 33 273 116 461 333 44 51 85
91 92 88 12 -4 35 32 35 54 0 6 -26 10 -58 10 -55 0 -59 -2 -76 -32z"/>
<path d="M968 6908 c16 -8 28 -8 45 0 19 9 17 11 -23 11 -40 0 -42 -2 -22 -11z"/>
<path d="M1134 6857 c-27 -34 -68 -87 -90 -117 -37 -52 -34 -50 49 33 87 87
126 112 91 60 -129 -193 -247 -488 -276 -687 -21 -150 15 -292 107 -422 60
-83 124 -133 255 -199 159 -80 215 -94 419 -105 97 -6 217 -17 266 -25 199
-34 395 -104 459 -163 25 -24 27 -24 17 -5 -47 91 -294 179 -805 284 -93 19
-134 35 -285 109 -197 97 -247 137 -296 238 -22 44 -30 76 -34 142 -5 87 -17
76 -20 -17 -1 -56 -16 -55 -30 1 -23 93 -6 216 55 394 75 221 134 333 254 480
l50 62 -67 -1 -68 0 -51 -62z"/>
<path d="M1317 6874 c-111 -86 -197 -235 -276 -470 -41 -123 -63 -238 -43
-219 6 6 32 57 57 115 122 276 207 415 308 506 62 56 136 108 144 101 2 -3 -6
-11 -19 -18 -12 -6 -53 -36 -90 -66 -54 -44 -77 -72 -124 -154 -31 -55 -55
-102 -52 -104 2 -2 26 30 54 72 53 81 136 164 205 202 41 24 41 23 -23 -40
-108 -105 -170 -216 -234 -409 -24 -74 -27 -102 -28 -210 -2 -209 12 -224 328
-373 393 -184 554 -235 772 -244 361 -15 498 87 570 422 20 95 35 408 24 506
-19 169 -98 260 -262 305 -124 33 -706 47 -840 19 -217 -45 -377 -199 -457
-441 -51 -153 -40 -292 31 -387 43 -57 43 -61 -2 -36 -112 63 -155 208 -115
385 10 43 19 95 21 114 2 48 63 174 119 248 58 77 128 135 219 183 l71 38
-151 0 -150 0 -57 -45z m1173 -104 c229 -26 322 -101 352 -281 6 -41 12 -159
12 -264 1 -164 -3 -202 -21 -277 -25 -98 -68 -190 -112 -241 -141 -160 -532
-157 -854 7 -101 52 -386 245 -439 298 -109 109 -117 275 -21 468 48 95 162
213 245 253 113 54 146 57 464 52 160 -3 329 -10 374 -15z"/>
<path d="M1790 6659 c-109 -21 -215 -102 -264 -201 -35 -70 -36 -165 -3 -228
23 -44 58 -71 43 -34 -4 11 -10 44 -13 75 -14 149 89 284 249 325 65 17 105
16 393 -5 262 -20 337 -47 398 -141 18 -28 26 -36 22 -20 -14 45 -57 99 -102
129 -50 33 -131 53 -288 70 -55 6 -143 18 -195 26 -104 16 -171 17 -240 4z"/>
<path d="M1820 6586 c-72 -16 -127 -45 -171 -93 -50 -52 -70 -96 -76 -164 -9
-91 22 -142 162 -273 109 -102 145 -146 90 -110 -14 9 -25 14 -25 11 0 -10
158 -106 215 -130 184 -77 378 -56 498 53 93 85 133 195 125 343 -7 113 -35
194 -90 253 -60 65 -121 84 -303 95 -82 5 -188 13 -235 19 -103 12 -120 12
-190 -4z m205 -46 c44 -5 146 -14 226 -19 156 -10 216 -28 265 -83 82 -89 105
-279 50 -410 -53 -125 -171 -198 -320 -198 -156 0 -266 61 -476 262 -127 122
-156 171 -146 246 13 96 82 168 189 197 63 17 108 18 212 5z"/>
<path d="M1815 6482 c-46 -21 -92 -71 -101 -108 -20 -79 16 -142 174 -302 89
-91 120 -116 185 -147 67 -33 90 -39 162 -43 184 -10 308 78 335 237 19 114
-12 232 -77 292 -67 63 -127 75 -428 84 -192 5 -213 4 -250 -13z m400 -31
c136 -8 171 -18 212 -63 60 -64 73 -192 28 -284 -45 -93 -134 -139 -253 -132
-104 5 -167 41 -286 162 -109 111 -156 176 -156 215 0 37 32 85 71 105 36 18
51 18 384 -3z"/>
<path d="M2780 6420 c-1 -196 -28 -353 -78 -460 -38 -81 -141 -181 -216 -209
-174 -65 -383 -42 -570 63 -71 40 -333 220 -391 270 -59 49 -96 123 -105 209
l-7 72 -2 -71 c-2 -147 38 -202 288 -390 269 -202 426 -264 665 -264 169 1
275 25 327 76 49 48 92 130 121 229 19 69 23 103 22 250 0 172 -12 265 -39
301 -13 17 -14 8 -15 -76z"/>
<path d="M1400 6116 c0 -19 65 -95 108 -128 105 -78 162 -118 162 -113 0 2
-42 36 -92 74 -92 68 -129 103 -161 151 -10 13 -17 21 -17 16z"/>
<path d="M4533 6875 c-73 -77 -177 -115 -311 -115 -84 0 -156 18 -297 76 -150
61 -156 62 -40 5 294 -145 502 -155 638 -31 28 26 60 62 70 79 17 30 17 31 0
30 -10 0 -37 -20 -60 -44z"/>
<path d="M4673 6903 c-35 -105 -99 -203 -123 -188 -5 3 -26 -5 -47 -17 -34
-20 -50 -23 -148 -22 -158 2 -282 40 -540 166 -33 16 -51 21 -40 12 34 -28
256 -131 350 -163 110 -37 247 -61 341 -61 57 0 77 4 98 21 37 29 149 269 126
269 -6 0 -13 -8 -17 -17z"/>
<path d="M5197 6853 c2 -38 8 -122 13 -188 5 -66 12 -159 16 -207 11 -166 34
-82 34 127 0 89 -4 130 -15 152 -8 17 -21 65 -27 107 -7 42 -15 76 -18 76 -3
0 -5 -30 -3 -67z"/>
<path d="M5476 6772 c51 -173 67 -215 100 -259 51 -67 131 -47 231 61 65 69
200 243 234 300 42 72 10 45 -69 -58 -101 -130 -205 -236 -256 -260 -88 -42
-139 12 -210 222 -29 85 -53 142 -61 142 -9 0 0 -43 31 -148z"/>
<path d="M5526 6863 c40 -91 79 -156 106 -176 32 -24 85 -24 129 -2 46 24 248
226 231 232 -7 3 -42 -22 -77 -56 -122 -114 -187 -135 -264 -87 -41 26 -95 90
-106 127 -4 10 -15 19 -26 19 -18 0 -17 -3 7 -57z"/>
<path d="M7235 6898 c-3 -13 -1 -91 4 -174 5 -82 8 -170 5 -195 -3 -42 -3 -42
5 -9 5 19 11 117 13 218 3 143 1 182 -9 182 -7 0 -15 -10 -18 -22z"/>
<path d="M7296 6888 c-3 -18 -7 -108 -10 -199 -5 -169 -21 -276 -58 -384 -69
-201 -212 -384 -369 -472 -64 -36 -63 -48 2 -22 202 79 366 308 443 614 21 86
25 128 28 298 3 182 2 197 -14 197 -12 0 -19 -10 -22 -32z"/>
<path d="M7517 6853 c-9 -38 -21 -113 -27 -168 -6 -55 -20 -140 -31 -190 -10
-49 -19 -92 -19 -95 2 -22 36 89 75 242 25 101 55 202 66 227 10 24 19 45 19
47 0 2 -15 4 -34 4 -34 0 -34 0 -49 -67z"/>
<path d="M7642 6908 c-28 -36 -57 -115 -97 -266 -24 -92 -58 -206 -75 -252
-67 -182 -219 -467 -332 -622 -59 -81 -136 -152 -223 -209 -36 -23 -65 -44
-65 -46 0 -17 176 94 232 146 116 107 281 381 424 705 36 83 74 165 84 182 10
17 26 58 35 90 26 91 78 197 120 242 l37 42 -65 0 c-40 0 -68 -5 -75 -12z"/>
<path d="M8232 6878 c7 -65 -9 -171 -42 -288 -37 -130 -38 -151 -2 -81 45 91
51 80 49 -91 -2 -174 7 -226 60 -334 43 -90 113 -161 257 -263 165 -116 222
-168 379 -345 266 -299 287 -315 707 -515 80 -38 164 -81 188 -96 31 -19 42
-22 42 -12 0 30 -92 116 -217 202 -160 111 -357 260 -447 339 -38 34 -131 131
-205 216 -75 85 -198 216 -274 290 -163 159 -193 209 -203 330 -7 85 15 237
45 304 l18 41 7 -106 c13 -213 51 -294 205 -441 135 -129 337 -297 426 -355
213 -139 270 -180 375 -269 63 -53 183 -144 265 -202 114 -80 181 -137 279
-235 104 -105 128 -125 122 -101 -21 86 -126 211 -299 357 -167 141 -211 187
-362 387 -149 197 -229 278 -360 368 -254 173 -387 337 -396 487 -3 68 0 105
9 105 4 0 18 -27 30 -60 78 -199 342 -295 423 -153 17 28 39 94 59 171 6 23
15 42 20 42 6 0 30 -40 54 -88 25 -49 56 -103 71 -120 43 -51 134 -88 300
-122 83 -17 206 -44 275 -60 69 -16 231 -47 360 -70 342 -59 426 -92 574 -224
158 -141 243 -188 366 -206 62 -9 110 -8 274 9 259 27 305 40 372 105 66 64
85 125 114 355 24 194 85 444 135 548 41 88 109 163 178 198 l51 25 -41 0
c-51 0 -117 -23 -161 -57 -95 -72 -152 -246 -207 -628 -14 -99 -35 -209 -46
-244 -52 -157 -189 -214 -519 -215 -215 0 -267 23 -461 210 -58 56 -125 114
-148 129 -49 33 -53 47 -9 34 44 -12 48 -11 18 6 -50 29 -153 55 -302 75 -406
55 -625 131 -759 263 -76 75 -61 86 30 22 102 -71 224 -128 342 -160 128 -33
191 -42 424 -60 273 -20 329 -39 486 -158 46 -34 100 -72 119 -84 89 -53 230
-68 338 -35 168 53 242 172 262 425 11 134 12 132 -84 362 l-45 110 -41 3
c-28 2 -40 -1 -40 -10 0 -27 39 -147 78 -241 23 -55 47 -127 53 -160 31 -173
-47 -347 -184 -408 -40 -18 -70 -24 -132 -24 -105 0 -149 18 -277 112 -188
137 -227 149 -518 157 -113 3 -245 12 -295 21 -356 61 -571 240 -592 493 l-6
62 -78 0 -79 0 0 -47 c2 -214 95 -384 263 -477 171 -96 332 -145 642 -195 318
-53 368 -74 525 -225 58 -56 122 -116 143 -133 103 -89 -31 -17 -163 87 -168
132 -235 158 -541 210 -262 44 -357 65 -541 120 -187 56 -258 85 -324 131 -88
64 -148 192 -180 385 -9 54 -18 109 -20 122 -4 21 -9 22 -83 22 l-78 0 -6
-137 c-7 -198 -40 -287 -120 -327 -36 -17 -40 -17 -83 -1 -50 19 -86 60 -110
126 -19 51 -22 227 -6 297 l10 43 -66 -3 -67 -3 -24 -110 c-19 -88 -24 -143
-25 -270 -1 -146 1 -165 23 -218 32 -81 115 -187 281 -359 98 -102 136 -148
123 -148 -47 0 -255 152 -389 285 -166 164 -193 289 -146 673 l18 152 -48 0
c-41 0 -48 -3 -52 -22 -3 -13 -17 -71 -30 -130 -65 -277 -83 -491 -51 -608 8
-30 18 -66 21 -80 l7 -25 -22 20 c-24 21 -48 61 -62 105 -7 19 -8 15 -5 -18 7
-75 49 -142 153 -245 53 -53 94 -99 90 -103 -9 -10 -168 92 -232 148 -151 135
-191 316 -125 563 40 147 67 267 75 338 l6 57 -96 0 -97 0 4 -42z"/>
<path d="M8446 6847 c-3 -40 -22 -138 -41 -217 -48 -198 -58 -320 -26 -320 5
0 25 46 44 103 20 56 52 149 72 207 20 58 47 149 60 203 l23 97 -63 0 -62 0
-7 -73z"/>
<path d="M8716 6898 c-14 -65 -30 -257 -29 -358 0 -95 4 -125 22 -172 12 -32
26 -60 30 -63 5 -2 9 59 8 138 0 137 8 191 59 445 l7 32 -47 0 c-39 0 -46 -3
-50 -22z"/>
<path d="M9001 6863 c-34 -170 12 -313 101 -313 24 0 42 8 61 28 46 47 60 97
65 225 l4 117 -109 0 -110 0 -12 -57z"/>
<path d="M9477 6883 c3 -21 13 -76 23 -123 53 -251 140 -347 388 -431 91 -31
108 -26 35 10 -129 62 -225 157 -265 264 -26 69 -48 185 -48 258 l0 59 -69 0
-70 0 6 -37z"/>
<path d="M9842 6845 c15 -226 224 -399 545 -451 68 -10 158 -14 316 -13 239 2
284 -4 411 -57 32 -14 60 -23 63 -20 9 9 -27 50 -69 78 -91 62 -212 78 -389
53 -332 -48 -606 41 -698 227 -36 70 -42 153 -16 215 8 19 15 37 15 39 0 2
-41 4 -91 4 l-92 0 5 -75z"/>
<path d="M10050 6878 c-45 -99 -15 -217 76 -297 130 -114 339 -151 587 -102
59 11 124 21 143 21 23 0 34 5 34 15 0 8 17 19 43 25 135 35 167 45 215 67 28
14 64 40 78 58 29 39 58 124 69 203 l7 52 -104 0 -104 0 -44 -46 c-25 -25 -63
-57 -86 -70 -52 -30 -408 -133 -491 -141 -77 -7 -140 14 -179 60 -22 26 -25
38 -21 74 2 24 16 61 31 83 l26 40 -130 0 -131 0 -19 -42z m564 -319 c-18 -31
-224 -36 -277 -7 -23 11 -6 13 128 13 84 0 151 -3 149 -6z"/>
<path d="M10380 6878 c-72 -158 56 -188 387 -92 109 31 178 63 223 102 l35 31
-313 1 -313 0 -19 -42z"/>
<path d="M11520 6901 c0 -27 39 -149 62 -196 11 -22 40 -71 63 -110 57 -94 68
-133 63 -221 -5 -77 1 -84 29 -31 12 23 17 56 17 112 0 72 -5 92 -48 198 -26
65 -55 152 -63 193 l-17 74 -53 0 c-45 0 -53 -3 -53 -19z"/>
<path d="M12095 6858 c3 -35 8 -84 11 -109 2 -26 0 -109 -6 -184 -6 -76 -9
-139 -7 -141 2 -2 16 60 31 138 32 167 67 280 102 326 l25 32 -81 0 -81 0 6
-62z"/>
<path d="M6848 6884 c-15 -16 -15 -19 3 -43 24 -33 36 -97 44 -246 8 -131 7
-136 -54 -240 -35 -59 -38 -90 -12 -105 56 -29 120 5 157 84 30 65 32 160 4
265 -11 42 -29 116 -40 166 -30 128 -59 162 -102 119z"/>
<path d="M1755 6874 c-188 -42 -350 -166 -425 -327 -49 -104 -80 -220 -80
-298 0 -67 16 -87 25 -32 45 259 186 472 370 560 128 60 178 66 555 60 369 -6
427 -13 537 -67 36 -18 78 -49 99 -73 32 -37 34 -38 21 -11 -19 38 -84 97
-134 123 -104 53 -236 69 -626 76 -223 4 -285 2 -342 -11z"/>
<path d="M4941 6769 c-1 -47 -12 -56 -28 -22 -12 27 -13 27 -8 -12 7 -58 25
-255 24 -263 -5 -29 3 -102 10 -102 4 0 14 21 21 46 14 48 8 269 -9 349 l-9
40 -1 -36z"/>
<path d="M6215 6703 c-90 -224 -145 -434 -145 -554 0 -77 3 -89 29 -130 15
-24 39 -54 53 -67 22 -20 22 -16 -11 49 -30 60 -36 83 -39 158 -5 108 12 198
78 402 28 84 48 154 46 156 -2 2 -7 -4 -11 -14z"/>
<path d="M3685 6624 c11 -9 52 -32 90 -51 277 -140 392 -308 356 -520 -22
-130 -87 -218 -214 -292 -76 -45 -47 -38 59 14 107 52 146 91 171 173 26 86
23 239 -6 315 -47 120 -154 219 -340 316 -117 60 -155 75 -116 45z"/>
<path d="M5858 6513 c-33 -37 -154 -248 -180 -315 -11 -29 -21 -76 -21 -103
-2 -94 36 -157 202 -330 132 -139 173 -196 206 -291 43 -122 30 -190 -42 -221
-59 -24 -354 -38 -565 -26 -239 14 -272 28 -298 123 -18 65 -16 281 3 361 25
103 57 164 150 289 48 63 94 135 102 160 20 55 29 212 18 300 l-9 65 -23 -120
c-30 -161 -62 -237 -161 -390 -103 -159 -128 -217 -179 -418 -59 -233 -67
-247 -231 -407 -77 -74 -140 -143 -140 -153 0 -15 11 -17 75 -17 68 0 79 -3
102 -26 22 -22 25 -31 20 -72 -3 -28 -31 -99 -66 -173 -83 -170 -95 -228 -88
-439 3 -91 11 -202 17 -248 7 -46 10 -132 8 -190 -4 -92 -9 -118 -36 -186 -18
-44 -31 -84 -29 -90 3 -6 25 10 50 35 83 86 99 205 57 419 -26 133 -36 306
-21 385 6 33 24 87 40 120 48 98 340 419 429 472 67 40 158 64 267 70 288 16
507 -86 522 -243 l5 -49 -36 40 -36 40 22 -50 c45 -104 36 -242 -32 -525 -21
-89 -42 -199 -46 -243 -11 -139 25 -269 95 -350 61 -69 126 -89 354 -113 51
-5 57 -7 45 -21 -11 -14 -10 -15 7 -10 11 3 72 8 135 12 162 10 229 32 297
101 66 65 117 168 139 279 13 64 14 106 7 215 -12 204 -9 327 10 391 24 82 75
142 149 178 86 43 158 53 314 45 163 -8 183 5 53 36 -151 35 -249 45 -328 33
-193 -30 -316 -152 -329 -326 -3 -37 3 -148 13 -247 21 -206 14 -303 -30 -399
-67 -147 -170 -195 -415 -195 -182 0 -258 22 -334 97 -79 77 -100 139 -100
292 0 101 5 140 31 245 45 178 63 292 63 391 0 149 -45 244 -150 321 -33 24
-60 46 -60 51 0 12 53 8 110 -9 83 -25 134 -65 167 -131 26 -53 28 -66 27
-163 -2 -109 -1 -106 -105 -490 -26 -98 -30 -127 -26 -200 3 -61 10 -98 26
-128 26 -51 36 -56 15 -7 -16 38 -19 162 -4 185 8 13 10 13 14 0 39 -110 53
-138 91 -175 53 -54 125 -80 220 -79 154 1 244 65 296 209 26 75 25 123 -7
300 -45 241 -27 355 72 465 76 84 223 157 371 186 89 17 247 18 343 3 38 -6
82 -9 97 -7 23 2 9 11 -72 45 -119 50 -188 68 -332 88 -189 27 -210 43 -152
124 101 141 150 222 219 366 136 283 171 358 166 362 -2 2 -36 -57 -75 -131
-97 -183 -179 -303 -253 -370 -71 -65 -213 -141 -349 -188 -86 -29 -105 -32
-219 -32 -111 -1 -130 2 -171 22 -69 34 -123 94 -199 222 -38 63 -99 150 -135
194 -97 117 -174 230 -192 282 -26 77 -13 204 36 349 54 157 54 186 -1 128z
m552 -1712 c26 -49 12 -103 -64 -252 -95 -185 -116 -247 -116 -346 0 -120 43
-189 148 -235 47 -21 53 -33 20 -42 -91 -24 -199 29 -239 119 -23 49 -25 176
-5 253 48 177 203 522 236 522 5 0 14 -9 20 -19z m58 -504 c67 -71 13 -194
-67 -152 -32 16 -41 33 -41 76 0 81 62 125 108 76z"/>
<path d="M6204 6503 c-27 -65 -54 -185 -54 -242 0 -88 25 -163 102 -311 130
-249 168 -308 216 -331 65 -32 143 -35 242 -10 190 48 332 149 439 313 55 83
148 274 138 284 -2 2 -12 -15 -22 -38 -129 -297 -344 -469 -590 -471 -126 -1
-194 40 -264 162 -181 312 -186 329 -185 529 0 83 -1 152 -3 152 -2 0 -11 -17
-19 -37z"/>
<path d="M6479 6503 c-20 -59 -15 -161 9 -217 50 -112 166 -243 237 -266 113
-37 248 40 321 182 28 56 54 150 53 193 0 22 -4 15 -15 -27 -48 -201 -204
-315 -342 -251 -55 25 -165 141 -197 207 -22 44 -30 77 -33 137 -3 44 -8 79
-13 79 -4 0 -13 -17 -20 -37z"/>
<path d="M12540 6471 c-66 -69 -124 -173 -145 -262 -38 -162 -2 -341 86 -427
35 -34 115 -70 127 -57 4 4 2 10 -5 12 -44 16 -94 68 -124 128 -28 57 -33 79
-37 164 -8 164 32 294 134 436 57 81 38 84 -36 6z"/>
<path d="M3136 6467 c-28 -47 -52 -111 -66 -172 -13 -59 -60 -441 -60 -489 0
-140 92 -211 275 -211 77 0 98 4 145 27 30 14 99 47 153 71 127 60 303 175
361 237 68 73 89 127 90 230 1 75 -2 92 -30 150 -17 36 -47 81 -66 100 -33 34
-155 106 -163 98 -3 -2 25 -34 61 -71 116 -120 145 -235 86 -348 -33 -64 -79
-100 -229 -186 -144 -81 -211 -105 -298 -107 -160 -2 -211 72 -234 341 -8 91
-5 153 15 316 8 70 -5 75 -40 14z"/>
<path d="M4365 6460 c8 -21 23 -92 35 -157 27 -156 45 -207 81 -238 75 -62
198 4 269 144 39 78 38 97 -2 37 -55 -84 -137 -122 -197 -92 -42 22 -73 73
-111 180 -32 93 -68 166 -81 166 -5 0 -2 -18 6 -40z"/>
<path d="M7842 6485 c-33 -15 -113 -91 -152 -145 -27 -38 -21 -38 32 0 83 60
145 59 223 -4 23 -19 45 -32 49 -29 32 32 -59 194 -108 193 -6 -1 -26 -7 -44
-15z"/>
<path d="M350 6379 c-19 -4 -66 -19 -105 -32 -38 -13 -109 -32 -158 -42 l-87
-18 0 -39 c0 -22 4 -37 9 -34 5 3 63 19 130 36 172 43 271 90 271 127 0 14 -8
15 -60 2z"/>
<path d="M7734 6274 c-59 -39 -90 -71 -159 -164 -155 -208 -272 -469 -300
-671 -24 -167 119 -262 625 -416 124 -37 126 -37 300 -37 192 -1 363 20 455
55 151 56 186 187 96 355 -76 141 -159 234 -256 285 -93 49 -178 113 -241 181
-52 58 -54 54 -8 -17 32 -50 6 -35 -52 29 -33 35 -95 122 -139 193 -86 138
-133 196 -176 219 -44 22 -101 18 -145 -12z m153 -101 c50 -35 85 -76 192
-234 70 -103 117 -156 272 -309 103 -102 205 -211 227 -242 103 -150 72 -261
-86 -308 -102 -30 -235 -50 -336 -50 -156 0 -440 71 -601 150 -160 78 -224
148 -225 246 0 111 94 373 188 523 143 229 259 299 369 224z"/>
<path d="M7721 5830 c-55 -25 -66 -40 -87 -117 -20 -74 -15 -172 11 -223 24
-48 72 -98 120 -123 56 -31 204 -32 254 -2 105 62 104 169 -4 337 -57 88 -83
118 -99 112 -7 -3 -32 4 -57 15 -55 26 -83 26 -138 1z m120 -180 c23 -13 49
-61 49 -91 0 -12 -7 -31 -17 -41 -39 -43 -113 0 -113 67 0 67 31 91 81 65z"/>
<path d="M7548 5793 c-47 -107 -61 -231 -36 -315 12 -41 81 -128 93 -117 3 4
-11 40 -32 80 -37 72 -38 77 -38 179 0 83 5 117 22 163 26 69 20 76 -9 10z"/>
<path d="M8248 5603 c57 -84 91 -157 104 -217 31 -155 -122 -246 -391 -233
-145 7 -254 29 -353 72 -96 41 -93 30 4 -18 124 -61 371 -117 515 -117 147 0
331 57 369 114 37 57 15 132 -67 237 -56 69 -199 219 -211 219 -5 0 9 -26 30
-57z"/>
<path d="M846 6258 c-47 -65 -64 -236 -37 -363 64 -298 309 -573 591 -663 100
-32 164 -41 312 -44 191 -4 190 18 -2 43 -227 29 -401 100 -563 229 -238 191
-347 467 -291 736 8 42 13 78 11 81 -3 2 -12 -6 -21 -19z"/>
<path d="M5020 6269 c0 -33 -135 -284 -230 -429 -56 -85 -92 -146 -80 -135 80
70 343 545 316 572 -3 3 -6 0 -6 -8z"/>
<path d="M340 6220 c-28 -6 -20 -8 39 -9 41 0 103 -8 138 -17 78 -20 99 -14
53 14 -29 18 -49 22 -115 21 -44 -1 -96 -5 -115 -9z"/>
<path d="M1106 6165 c-9 -35 -16 -100 -16 -144 0 -176 70 -266 291 -375 107
-53 165 -74 293 -107 87 -22 160 -39 161 -37 2 2 -67 29 -153 61 -203 76 -393
180 -466 256 -80 85 -99 144 -93 294 2 64 3 117 2 117 -2 0 -10 -29 -19 -65z"/>
<path d="M1164 6094 c6 -159 60 -239 234 -341 183 -108 363 -180 733 -293 249
-77 308 -101 368 -155 77 -70 100 -169 102 -445 1 -235 15 -343 18 -140 2 150
31 384 49 402 20 20 33 -41 43 -211 10 -163 21 -231 75 -461 36 -154 38 -314
5 -408 -40 -115 -110 -200 -206 -250 -46 -25 -59 -27 -160 -26 -99 1 -124 5
-250 44 -361 110 -503 134 -771 128 -156 -3 -185 -6 -226 -25 -76 -35 -89 -91
-38 -161 32 -45 161 -159 253 -223 82 -58 71 -42 -17 25 -41 30 -105 83 -141
118 -99 92 -117 139 -69 177 42 33 100 43 244 42 264 -1 426 -49 830 -245 107
-51 261 -96 333 -96 27 0 64 7 83 16 68 33 202 205 270 348 55 115 59 159 44
444 -19 364 -3 518 70 667 27 56 74 114 84 104 2 -2 -7 -44 -20 -94 -46 -168
-41 -459 11 -660 37 -142 119 -263 190 -281 52 -13 105 20 180 112 167 203
244 366 280 588 8 49 13 91 11 94 -2 2 -11 -22 -20 -52 -9 -31 -20 -56 -25
-56 -5 0 -12 26 -15 58 -20 168 -81 252 -184 252 -112 0 -213 -78 -287 -220
-25 -50 -50 -88 -56 -85 -12 8 -11 72 2 137 27 126 111 232 231 288 l63 30
-39 0 c-38 0 -38 1 -22 19 26 29 124 69 197 80 174 28 275 -50 279 -214 1 -46
2 -48 12 -22 24 67 43 2 33 -116 -11 -134 -42 -296 -75 -397 -17 -52 -73 -183
-124 -290 -110 -229 -129 -279 -150 -390 -34 -176 -8 -491 42 -508 9 -3 12 21
12 95 1 162 18 356 39 445 25 108 61 196 171 426 84 176 181 430 160 417 -14
-9 -12 30 6 126 34 185 84 313 184 465 55 84 75 140 65 185 -15 66 -83 75
-215 28 -51 -18 -149 -40 -245 -54 -196 -31 -251 -43 -448 -99 -181 -52 -241
-80 -297 -138 -60 -62 -142 -237 -181 -383 -54 -209 -64 -185 -64 160 0 253
-1 272 -20 305 -35 61 -86 78 -303 100 -301 31 -417 54 -620 125 -220 76 -537
227 -609 289 -56 48 -93 127 -103 218 l-9 73 3 -91z m2362 -1265 c14 -16 19
-36 18 -83 -1 -141 -107 -261 -160 -181 -38 58 -6 232 50 270 29 21 70 18 92
-6z"/>
<path d="M200 6155 c-73 -15 -131 -38 -173 -67 l-29 -21 4 -136 4 -136 58
-160 c60 -167 176 -448 183 -442 2 2 -17 57 -42 121 -55 142 -118 345 -139
449 -38 180 -11 255 109 308 59 26 167 31 240 10 78 -23 153 -106 249 -276
106 -189 172 -286 258 -380 84 -90 199 -185 268 -220 66 -34 176 -63 263 -70
l72 -6 -83 26 c-95 29 -190 74 -247 118 -86 66 -258 233 -304 295 -51 68 -136
230 -167 320 -10 28 -24 52 -31 52 -7 0 -35 33 -63 74 -57 86 -100 122 -166
142 -58 17 -176 17 -264 -1z"/>
<path d="M9817 6100 c-93 -24 -127 -63 -127 -148 0 -95 80 -265 196 -419 63
-82 113 -126 274 -243 163 -118 207 -159 331 -302 99 -115 143 -157 155 -146
6 7 -35 78 -114 198 -76 114 -145 190 -349 380 -109 102 -144 162 -150 260 -7
108 35 150 173 170 149 21 349 8 461 -31 77 -26 136 -67 273 -189 207 -185
281 -227 499 -285 159 -42 191 -56 231 -101 38 -44 41 -106 8 -173 -21 -44
-121 -154 -182 -199 -35 -27 -30 -37 10 -20 91 39 221 169 267 266 68 146 6
249 -172 288 -204 43 -259 59 -329 95 -43 21 -106 62 -142 92 -66 55 -240 246
-240 265 0 19 -114 86 -195 113 -91 31 -647 129 -765 135 -41 2 -92 -1 -113
-6z m510 -110 c226 -31 335 -56 407 -92 45 -23 119 -78 113 -84 -2 -3 -33 9
-68 26 -134 62 -318 92 -589 94 -180 1 -223 -11 -280 -83 -18 -22 -39 -41 -46
-41 -14 0 -34 52 -34 89 0 38 32 85 71 104 51 25 177 21 426 -13z"/>
<path d="M239 6026 c-138 -37 -169 -143 -109 -376 39 -153 236 -515 350 -643
52 -59 196 -155 298 -199 l77 -33 175 0 c195 0 168 7 325 -89 81 -49 143 -67
251 -73 144 -8 204 24 204 109 0 48 -37 88 -97 106 -63 18 -200 32 -328 32
-94 0 -129 4 -160 19 -63 28 -168 151 -316 367 -156 228 -198 297 -299 484
-90 166 -117 207 -175 258 -59 52 -109 62 -196 38z m218 -433 c40 -44 169
-228 192 -275 41 -88 36 -126 -15 -114 -44 11 -105 82 -156 182 -89 172 -101
292 -21 207z"/>
<path d="M4899 5803 c-143 -299 -170 -338 -360 -524 l-159 -156 -73 -144 c-40
-79 -97 -200 -127 -269 -30 -69 -92 -197 -139 -285 -96 -180 -143 -288 -166
-375 -76 -294 -6 -504 207 -616 85 -44 107 -40 42 8 -125 92 -196 198 -212
318 -28 203 42 407 240 701 127 187 193 302 202 349 9 51 74 176 128 246 26
33 92 109 147 167 159 170 185 216 270 483 28 89 64 194 81 234 56 136 24 81
-81 -137z"/>
<path d="M4712 5860 c-41 -44 -91 -90 -113 -103 -34 -19 -48 -41 -116 -177
-43 -85 -79 -159 -81 -165 -8 -23 87 89 177 210 77 104 217 315 208 315 -1 0
-35 -36 -75 -80z"/>
<path d="M4996 5823 c-3 -10 -19 -67 -36 -128 -17 -60 -45 -152 -62 -202 -32
-93 -32 -116 0 -97 39 24 73 102 103 230 16 71 32 138 34 149 4 13 0 10 -10
-7 -23 -40 -28 -35 -23 22 5 52 3 63 -6 33z"/>
<path d="M980 5721 c67 -129 204 -252 380 -341 110 -55 192 -77 357 -95 82 -9
178 -22 214 -30 137 -28 250 -99 310 -195 33 -53 38 -47 8 11 -28 56 -20 68
24 30 74 -66 111 -176 142 -421 19 -154 19 -243 1 -303 -44 -146 -160 -187
-526 -188 -194 0 -368 16 -660 61 -286 43 -320 48 -320 39 0 -9 81 -28 320
-73 329 -62 729 -110 1021 -123 158 -7 210 5 278 63 95 82 109 166 66 384 -17
85 -26 176 -30 285 -6 157 -19 280 -33 302 -4 6 -7 -65 -7 -158 0 -117 -4
-172 -12 -180 -13 -13 -11 -21 -44 135 -11 55 -31 123 -44 150 -79 178 -302
273 -719 306 -183 15 -264 37 -423 115 -150 73 -237 146 -300 246 -20 33 -38
59 -40 59 -2 0 15 -36 37 -79z"/>
<path d="M5519 5680 c-9 -5 -22 -23 -29 -40 -11 -26 -10 -37 4 -75 29 -75 120
-118 204 -95 93 24 79 124 -25 190 -49 31 -119 40 -154 20z"/>
<path d="M8646 5658 c5 -7 29 -40 55 -73 57 -73 150 -225 172 -283 48 -120 42
-203 -18 -265 -72 -74 -186 -106 -490 -138 -245 -25 -340 -22 -525 16 -163 34
-311 55 -380 54 -49 -1 -43 -3 55 -20 61 -11 187 -38 280 -61 208 -50 276 -54
686 -39 l296 11 138 39 c172 49 189 63 182 143 -6 65 -64 205 -120 289 -53 79
-188 231 -257 289 -58 48 -90 64 -74 38z"/>
<path d="M9069 5652 c40 -75 401 -381 662 -562 181 -125 286 -260 348 -446 42
-125 54 -210 48 -323 -7 -126 -27 -181 -137 -367 -150 -254 -199 -383 -222
-585 -20 -177 16 -407 103 -671 47 -142 81 -212 142 -293 119 -158 224 -248
334 -286 57 -19 167 -26 177 -10 3 5 -28 21 -70 36 -140 51 -208 117 -333 327
-161 270 -245 559 -245 843 0 211 32 317 173 570 97 174 126 247 141 353 15
98 3 220 -35 362 -63 234 -163 370 -410 557 -66 50 -164 129 -218 177 -139
122 -268 223 -364 284 -88 56 -110 64 -94 34z"/>
<path d="M9685 5645 c19 -89 140 -242 294 -372 208 -175 258 -229 334 -355 70
-117 116 -322 117 -520 0 -173 -38 -266 -211 -508 -126 -176 -193 -304 -214
-405 -39 -186 7 -456 110 -652 98 -186 314 -413 393 -413 21 0 16 7 -34 53
-93 84 -258 299 -309 401 -64 130 -96 261 -102 421 -8 219 17 289 214 581 193
288 209 328 200 523 -13 292 -99 517 -266 694 -36 38 -120 116 -187 172 -163
139 -231 217 -321 369 -23 38 -24 39 -18 11z"/>
<path d="M0 5642 c0 -22 80 -205 87 -198 4 3 -74 207 -83 215 -2 2 -4 -5 -4
-17z"/>
<path d="M0 5422 c0 -150 -8 -125 125 -418 40 -89 110 -223 155 -298 45 -75
79 -140 75 -144 -9 -9 -88 80 -159 178 -30 41 -86 134 -125 205 l-71 130 0
-2136 c0 -2015 1 -2138 18 -2170 22 -44 22 -143 -1 -186 -13 -25 -17 -59 -17
-163 0 -71 2 -130 4 -130 2 0 33 13 69 30 103 46 220 73 322 74 81 1 97 -2
157 -31 120 -56 198 -161 221 -297 l11 -66 34 0 35 0 -7 83 c-13 147 -38 215
-140 387 -134 226 -142 406 -21 527 65 64 147 93 264 93 92 0 158 -18 266 -71
175 -88 278 -171 479 -392 92 -101 162 -165 171 -156 4 5 -177 256 -254 353
-63 79 -131 143 -321 301 -173 144 -297 262 -329 315 -11 19 -21 52 -21 72 0
51 63 117 274 285 94 75 212 178 261 227 90 90 263 284 322 361 44 58 76 126
65 137 -5 5 -52 -42 -122 -124 -163 -191 -341 -367 -432 -425 -122 -80 -197
-106 -298 -107 -150 0 -255 62 -422 251 -52 59 -143 160 -202 223 -59 63 -123
139 -143 169 -88 132 -94 280 -18 430 62 124 227 287 398 395 114 71 189 96
286 96 141 -1 234 -50 415 -218 98 -93 348 -308 498 -431 47 -38 57 -14 23 55
-20 41 -57 84 -133 158 -59 55 -187 181 -287 278 -194 190 -209 204 -300 265
-131 88 -267 140 -333 128 -52 -9 -112 -47 -201 -124 -42 -37 -150 -129 -241
-206 -91 -76 -175 -147 -188 -158 -12 -11 -22 -16 -22 -10 0 6 52 66 115 134
225 241 281 336 272 459 -6 87 -40 159 -165 347 -115 172 -222 353 -222 373 0
22 35 -16 133 -145 106 -140 247 -286 330 -340 88 -58 142 -59 273 -6 171 69
207 73 554 71 168 -1 316 -3 330 -3 62 -2 104 3 94 13 -13 13 -602 109 -890
145 -223 28 -328 69 -423 164 -82 82 -283 376 -347 507 -30 61 -54 117 -54
125 0 7 25 -27 56 -77 64 -101 126 -181 242 -307 189 -206 252 -234 627 -281
110 -14 250 -32 310 -41 111 -15 395 -20 454 -9 53 11 35 21 -50 29 -99 8
-270 37 -359 60 -74 19 -497 152 -511 160 -5 4 -28 8 -51 11 -24 2 -83 24
-133 49 -108 53 -269 187 -355 294 -78 98 -192 292 -289 491 l-81 165 0 -133z
m238 -1541 c31 -63 36 -83 37 -145 0 -61 -5 -81 -32 -136 -17 -36 -48 -81 -69
-100 -20 -19 -35 -30 -32 -25 2 6 18 39 36 74 66 136 66 234 -2 378 -20 41
-36 78 -36 81 0 22 68 -66 98 -127z m21 -1838 c52 -25 94 -56 141 -102 105
-105 250 -336 250 -399 0 -57 -61 -120 -180 -186 -115 -63 -200 -76 -297 -45
-46 15 -41 32 17 52 112 40 178 125 187 240 10 121 -44 246 -163 377 -109 121
-100 133 45 63z"/>
<path d="M10600 5517 c0 -37 121 -163 185 -194 107 -51 27 101 -94 179 -48 30
-91 37 -91 15z"/>
<path d="M921 5353 c47 -78 161 -223 210 -267 84 -76 138 -96 281 -106 67 -5
174 -10 237 -10 143 0 222 -14 286 -48 99 -54 150 -165 125 -273 -10 -44 -22
-64 -65 -105 -72 -72 -127 -89 -275 -89 -154 1 -250 22 -450 102 -209 83 -291
107 -339 98 l-36 -7 27 -23 c26 -22 317 -142 448 -185 141 -45 258 -64 410
-64 126 -1 154 2 215 22 89 30 142 66 181 124 51 76 66 206 36 318 -6 21 -8
18 -12 -20 l-5 -45 -33 63 c-88 169 -213 232 -462 232 -52 0 -135 5 -185 10
-240 28 -339 71 -495 215 -56 52 -107 95 -112 95 -5 0 1 -17 13 -37z"/>
<path d="M12424 5252 c-45 -34 -107 -100 -183 -198 -76 -97 -38 -62 55 51 42
52 102 112 132 134 30 23 50 41 45 41 -6 0 -28 -13 -49 -28z"/>
<path d="M11325 5089 c-145 -121 -316 -145 -485 -69 -62 29 -64 29 -35 5 74
-61 188 -105 276 -105 134 0 359 100 359 160 0 20 -31 50 -51 50 -8 0 -37 -19
-64 -41z"/>
<path d="M12041 5091 c-75 -94 -418 -312 -601 -381 -19 -7 -109 -46 -200 -85
-432 -190 -523 -177 -683 97 -28 48 -52 86 -54 84 -4 -4 111 -275 149 -351 20
-38 43 -92 52 -118 25 -73 10 -97 -172 -277 -100 -98 -181 -190 -224 -250 -37
-52 -65 -96 -64 -97 2 -2 54 48 117 110 138 138 215 183 299 175 73 -7 115
-45 168 -149 44 -88 79 -204 111 -379 11 -58 34 -157 51 -220 37 -139 47 -247
30 -321 -52 -223 -286 -387 -450 -317 -50 22 -152 101 -249 193 -134 128 -55
1 100 -160 118 -122 168 -150 260 -143 167 12 373 207 425 402 16 61 18 181 4
259 -6 31 -26 109 -44 174 -18 65 -46 186 -61 268 -42 233 -71 347 -118 468
-58 147 -61 161 -42 196 35 69 231 199 485 321 369 178 502 255 631 361 76 64
142 160 119 174 -4 3 -22 -12 -39 -34z"/>
<path d="M12515 4900 c-116 -86 -165 -109 -410 -195 -254 -89 -358 -136 -528
-236 -117 -70 -202 -142 -291 -249 -39 -47 -63 -126 -76 -257 -6 -59 -17 -162
-25 -228 -22 -178 -22 -362 0 -470 23 -119 24 -289 1 -374 -19 -71 -62 -162
-109 -231 -46 -67 -194 -216 -262 -265 -183 -131 -357 -119 -515 35 -28 28
-53 50 -56 50 -15 0 56 -111 97 -152 129 -129 309 -141 475 -32 69 45 229 202
298 292 168 220 202 362 177 734 -11 156 -11 204 3 328 8 80 18 190 21 245 13
208 46 305 137 401 87 93 269 204 414 253 149 50 412 154 477 188 50 26 101
66 167 130 52 51 93 92 90 92 -3 0 -41 -27 -85 -59z"/>
<path d="M5478 4901 c-130 -42 -247 -153 -387 -370 -111 -172 -109 -367 6
-621 36 -80 38 -91 38 -180 -1 -111 -16 -152 -129 -355 -165 -294 -169 -376
-28 -627 24 -43 46 -78 48 -78 3 0 -10 28 -29 63 -111 201 -118 306 -33 474
73 145 290 424 357 459 60 30 81 20 289 -137 175 -132 278 -183 425 -208 54
-10 466 -22 790 -24 106 -1 126 2 167 22 99 48 170 161 226 362 47 166 53 225
50 459 -3 207 -2 217 20 257 33 62 83 91 198 114 134 27 139 30 64 45 -100 20
-226 17 -277 -5 -90 -41 -132 -154 -113 -302 5 -41 15 -112 21 -159 24 -174
-6 -364 -81 -517 -52 -106 -107 -155 -203 -185 -62 -19 -81 -20 -181 -12 -109
9 -209 9 -511 3 -134 -3 -156 -1 -208 18 -60 23 -122 61 -113 70 3 3 -14 18
-37 33 -102 65 -187 190 -187 274 0 73 111 375 139 383 21 5 96 266 111 384
25 192 -43 319 -193 364 -67 20 -169 18 -239 -4z m143 -167 c36 -18 75 -66 89
-110 8 -24 11 -70 8 -128 -12 -210 -179 -560 -299 -621 -59 -31 -88 -21 -159
53 -127 132 -176 287 -136 425 28 97 170 286 265 352 76 52 165 63 232 29z"/>
<path d="M7518 4883 c6 -2 18 -2 25 0 6 3 1 5 -13 5 -14 0 -19 -2 -12 -5z"/>
<path d="M7615 4864 c33 -7 67 -13 75 -12 23 1 -82 26 -110 26 -14 0 2 -6 35
-14z"/>
<path d="M9312 4787 c-32 -38 -23 -130 35 -362 65 -260 57 -365 -59 -730 -76
-239 -101 -289 -175 -352 -185 -156 -208 -198 -207 -383 0 -95 5 -125 24 -175
52 -136 175 -278 290 -338 l55 -29 -40 35 c-22 19 -38 38 -35 41 3 3 42 -6 85
-20 111 -35 204 -35 282 0 31 15 61 32 65 39 11 18 10 164 -3 233 -6 32 -29
136 -51 229 -58 247 -56 274 54 605 47 140 113 316 147 390 85 183 99 218 110
289 21 130 -27 262 -133 366 -73 71 -155 115 -287 150 -105 28 -142 31 -157
12z"/>
<path d="M5042 4674 c-183 -185 -216 -335 -143 -653 16 -69 34 -151 39 -181
l11 -55 -5 70 c-3 39 -14 121 -24 184 -43 248 -14 399 104 544 62 76 120 166
113 174 -4 3 -47 -34 -95 -83z"/>
<path d="M8205 4703 c-131 -11 -219 -12 -487 -3 -225 8 -333 8 -345 1 -15 -8
-15 -10 -3 -11 9 0 70 -8 135 -17 97 -13 209 -17 585 -18 501 -1 508 -1 650
-58 30 -12 63 -20 73 -18 32 5 124 -65 162 -122 60 -90 79 -157 79 -282 1
-163 -47 -323 -131 -437 -34 -48 -111 -113 -121 -104 -2 3 17 34 42 69 61 86
111 196 136 299 26 107 26 170 0 73 -10 -38 -24 -82 -31 -97 -13 -30 -36 -39
-24 -10 4 9 9 71 10 137 l4 120 -9 -95 c-16 -194 -86 -318 -265 -471 -186
-158 -224 -275 -175 -531 11 -57 29 -161 40 -233 24 -153 42 -217 120 -425 79
-212 113 -352 114 -465 1 -74 -3 -95 -19 -119 -25 -38 -71 -56 -143 -56 -120
0 -233 52 -432 199 -68 51 -195 137 -281 191 -93 59 -200 138 -264 195 -117
103 -189 145 -244 145 l-36 -1 35 -26 c19 -15 94 -86 165 -158 118 -120 144
-140 280 -223 83 -50 209 -137 280 -193 179 -140 270 -198 410 -260 168 -75
199 -94 267 -163 41 -43 76 -93 114 -166 30 -58 88 -152 130 -210 41 -58 107
-169 147 -247 40 -79 76 -143 81 -143 14 0 0 122 -38 318 -20 101 -33 194 -30
208 16 63 81 57 345 -29 322 -106 449 -180 508 -298 34 -67 41 -61 15 15 -33
96 -118 166 -404 332 -124 72 -146 89 -270 215 -74 75 -176 168 -227 208 -106
82 -139 129 -223 304 -61 129 -134 316 -126 324 2 3 35 -41 72 -96 37 -56 69
-100 71 -98 1 2 -10 28 -26 58 -42 78 -113 248 -109 260 2 6 37 -33 78 -87
135 -177 205 -238 408 -353 105 -60 182 -127 249 -215 163 -215 216 -261 425
-367 78 -39 197 -109 266 -155 147 -100 142 -96 142 -91 0 17 -239 206 -360
284 -188 124 -233 172 -339 359 -107 189 -172 256 -351 364 -196 117 -321 252
-406 435 -49 106 -66 191 -68 330 -1 189 19 247 139 405 115 150 182 303 224
515 20 105 21 131 1 71 -6 -20 -15 -36 -19 -36 -5 0 -11 66 -14 148 -3 88 -12
173 -22 212 -17 65 -89 230 -100 230 -3 0 -1 -9 5 -21 23 -42 3 -39 -28 4 -84
118 -193 164 -432 186 -141 13 -200 12 -405 -6z m844 -1019 c-30 -71 -76 -139
-194 -284 -76 -92 -89 -140 -89 -315 -1 -287 51 -440 241 -718 41 -60 72 -114
70 -120 -7 -21 -128 106 -189 197 -154 231 -211 425 -212 726 -1 129 0 137 26
185 36 65 46 76 157 170 91 77 155 151 196 229 33 62 29 14 -6 -70z"/>
<path d="M2623 4535 c0 -22 2 -30 4 -17 2 12 2 30 0 40 -3 9 -5 -1 -4 -23z"/>
<path d="M8130 4515 c-85 -14 -227 -34 -315 -45 -281 -36 -376 -74 -417 -168
-20 -45 -29 -128 -41 -382 -7 -139 10 -76 23 87 17 227 39 275 152 331 81 41
148 57 289 72 63 6 184 22 269 36 251 39 367 31 493 -32 59 -30 124 -94 144
-142 39 -90 12 -209 -63 -286 -44 -46 -62 -46 -34 -1 20 32 -204 -189 -248
-245 -72 -91 -128 -221 -192 -446 -97 -335 -129 -373 -320 -374 -150 0 -273
41 -431 146 -61 40 -89 52 -89 39 0 -3 9 -23 19 -43 25 -49 99 -118 251 -232
154 -117 192 -153 267 -266 67 -98 79 -110 173 -177 210 -147 364 -168 399
-54 5 17 12 63 16 100 7 68 7 68 27 50 16 -13 19 -14 15 -3 -38 100 -90 278
-107 370 -11 63 -32 165 -45 226 -30 135 -31 225 -5 328 36 143 105 232 260
341 115 81 172 141 217 231 32 66 37 87 41 164 8 162 -50 257 -202 330 -155
74 -284 85 -546 45z"/>
<path d="M2633 4440 c0 -30 2 -43 4 -27 2 15 2 39 0 55 -2 15 -4 2 -4 -28z"/>
<path d="M10278 4300 c-4 -58 -14 -129 -22 -159 -8 -30 -11 -50 -6 -45 21 21
41 135 38 221 l-3 88 -7 -105z"/>
<path d="M12620 4368 c0 -3 21 -41 46 -83 40 -69 91 -181 122 -270 9 -27 11
-24 11 33 1 56 -4 74 -39 141 -35 66 -138 199 -140 179z"/>
<path d="M12026 4344 c-286 -63 -422 -200 -465 -469 -71 -446 -92 -587 -101
-685 -14 -147 -26 -219 -51 -300 -25 -80 -81 -195 -114 -235 -21 -25 -19 -19
11 43 76 157 99 263 114 525 5 98 17 226 25 284 9 58 14 107 12 109 -2 2 -11
-30 -21 -72 -30 -128 -37 -148 -45 -135 -5 7 -11 -79 -14 -191 -4 -112 -13
-235 -21 -274 -34 -168 -114 -312 -320 -578 -176 -225 -271 -310 -401 -358
-72 -26 -225 -31 -323 -9 -34 8 -65 11 -69 7 -10 -9 36 -55 84 -83 129 -76
319 -69 451 16 95 61 202 193 503 625 138 198 185 323 223 586 27 190 77 503
102 644 20 113 49 209 80 262 55 94 179 179 275 188 24 3 56 9 71 15 15 6 64
15 109 21 251 31 451 -103 514 -345 42 -164 -16 -367 -205 -714 -122 -224
-152 -297 -184 -446 -38 -181 -47 -306 -40 -515 10 -278 -16 -471 -74 -555
-69 -99 -160 -120 -431 -99 -242 20 -378 51 -433 101 -31 28 -11 30 89 11 80
-16 127 -19 253 -15 276 8 379 65 439 244 37 110 44 192 37 438 -8 290 5 495
38 599 13 42 51 120 87 178 181 297 214 378 214 533 0 115 -17 164 -80 233
-142 158 -412 115 -508 -81 -44 -90 -58 -161 -67 -347 -13 -252 -17 -287 -46
-386 -30 -105 -83 -222 -154 -338 -47 -80 -290 -429 -312 -451 -18 -18 43 98
117 220 141 234 192 358 239 581 24 116 58 345 52 351 -1 2 -9 -16 -17 -39
l-14 -43 -5 60 c-7 70 -3 87 -50 -210 -60 -375 -94 -461 -325 -820 -134 -209
-223 -419 -247 -586 -21 -143 23 -183 250 -229 75 -15 193 -33 262 -40 69 -6
190 -20 269 -31 79 -10 148 -19 154 -19 7 0 6 -5 -1 -12 -10 -10 -88 -15 -285
-19 -314 -8 -392 -17 -577 -67 -127 -35 -144 -37 -285 -37 -183 0 -251 17
-433 107 -91 46 -125 59 -134 50 -8 -8 8 -30 62 -87 134 -138 255 -201 425
-224 95 -13 178 -5 362 38 70 16 164 35 208 42 109 18 373 15 527 -5 69 -9
129 -16 133 -16 3 0 3 -5 0 -10 -3 -6 -43 -10 -88 -11 -45 0 -104 -5 -132 -9
-29 -5 76 -6 255 -3 168 3 341 6 385 6 178 2 280 -68 375 -257 l38 -76 0 326
1 326 -36 46 c-47 62 -127 230 -147 312 -29 116 -39 256 -33 455 7 206 22 317
63 447 26 82 84 206 130 280 20 31 24 51 24 110 l0 73 -61 -94 c-163 -252
-219 -419 -249 -741 -9 -93 -9 -170 -1 -301 12 -204 26 -284 77 -452 59 -194
51 -238 -53 -277 -98 -36 -283 -80 -388 -92 -85 -10 -138 -8 -355 11 -140 12
-311 22 -380 22 -118 1 -123 1 -92 15 66 29 221 44 457 44 319 0 414 24 505
127 72 82 75 103 75 578 1 418 1 421 28 560 36 182 67 272 167 485 159 339
203 472 203 615 1 228 -139 451 -331 526 -74 29 -271 36 -376 13z m213 -485
c58 -32 85 -80 89 -159 13 -233 -255 -392 -349 -207 -28 53 -36 160 -19 222
38 135 172 204 279 144z m-294 -106 c-38 -107 -38 -236 -2 -418 22 -113 25
-154 25 -317 l-1 -188 -40 0 c-78 0 -194 -102 -340 -299 -135 -180 -193 -321
-184 -444 7 -110 68 -179 185 -213 110 -32 283 -1 354 63 25 23 32 10 14 -25
-53 -102 -210 -161 -395 -149 -146 9 -253 65 -292 151 -44 98 -12 260 87 428
50 85 204 300 401 559 65 86 116 163 122 185 15 55 14 161 -5 299 -19 142 -13
260 17 340 20 53 66 121 76 111 3 -2 -7 -40 -22 -83z m-77 -1149 c82 -57 121
-366 62 -501 -26 -62 -91 -125 -146 -144 -99 -33 -222 -1 -270 71 -73 110 -15
312 137 474 96 103 167 136 217 100z"/>
<path d="M4353 4285 c-107 -49 -192 -168 -201 -281 -9 -115 43 -174 153 -174
162 0 255 116 243 304 -8 113 -51 176 -121 176 -12 0 -46 -11 -74 -25z"/>
<path d="M8285 4303 c-16 -2 -84 -17 -150 -33 -66 -15 -160 -38 -209 -49 -112
-26 -169 -54 -222 -106 -74 -75 -123 -215 -144 -418 -28 -272 75 -446 266
-447 75 0 149 34 200 93 19 23 75 121 123 217 112 227 144 274 272 400 136
135 156 190 99 270 -37 52 -147 86 -235 73z m-151 -227 c30 -19 34 -60 12
-104 -7 -15 -17 -47 -21 -72 -11 -69 -72 -236 -117 -323 -63 -120 -146 -179
-232 -163 -49 9 -101 57 -123 114 -35 90 -15 271 42 381 40 79 133 152 225
178 60 17 181 11 214 -11z"/>
<path d="M7565 4186 c-54 -54 -78 -135 -121 -406 -49 -315 -24 -484 85 -583
47 -43 77 -51 36 -10 -108 109 -128 267 -75 600 33 205 58 304 96 372 13 24
24 45 24 47 0 12 -24 1 -45 -20z"/>
<path d="M2677 4153 c-104 -143 -227 -192 -446 -180 -58 3 -178 13 -266 22
-88 8 -266 17 -395 19 -246 4 -247 3 -11 -14 190 -15 349 -41 556 -92 141 -35
187 -42 270 -43 85 0 107 4 146 23 114 56 193 171 187 268 l-3 49 -38 -52z"/>
<path d="M3067 4193 c-4 -3 -7 -34 -7 -67 0 -89 -23 -173 -84 -304 -57 -124
-86 -208 -86 -252 0 -14 11 -49 25 -77 32 -64 101 -118 216 -172 186 -86 312
-77 357 28 11 27 17 97 23 281 8 266 17 319 78 474 18 43 30 83 28 89 -3 9
-99 -99 -202 -227 -22 -27 -62 -94 -90 -149 -53 -107 -73 -129 -102 -111 -21
13 -29 45 -41 179 -7 71 -19 123 -41 180 -34 87 -64 139 -74 128z"/>
<path d="M4096 4178 c-44 -68 -86 -202 -86 -278 0 -175 114 -273 320 -274 87
-1 99 1 149 29 68 37 125 102 150 171 24 63 38 203 24 229 -8 13 -11 2 -15
-48 -10 -118 -72 -216 -168 -261 -36 -17 -64 -21 -140 -21 -122 1 -179 26
-225 100 -27 44 -30 56 -30 134 0 62 7 107 23 160 24 77 24 98 -2 59z"/>
<path d="M3846 4168 c-88 -135 -138 -419 -103 -585 43 -202 159 -319 428 -432
215 -91 337 -112 424 -72 107 48 333 364 390 544 31 97 32 123 1 41 -60 -162
-231 -366 -360 -429 -149 -73 -346 -36 -566 106 -192 124 -269 280 -256 519 5
90 35 244 61 313 10 24 -2 21 -19 -5z"/>
<path d="M1380 3793 c-25 -13 -36 -26 -38 -46 -11 -93 194 -244 346 -255 128
-9 181 31 167 125 -9 61 -65 121 -148 159 -54 24 -77 28 -177 31 -96 4 -121 1
-150 -14z"/>
<path d="M10445 3779 c-55 -29 -139 -112 -186 -183 -79 -120 -98 -260 -59
-425 31 -129 72 -205 154 -287 64 -63 161 -132 172 -122 2 3 -36 45 -85 95
-98 100 -156 200 -187 323 -56 219 24 432 212 566 35 25 64 48 64 50 0 11 -49
1 -85 -17z"/>
<path d="M1035 3690 c11 -12 71 -65 133 -117 62 -52 178 -157 258 -233 136
-130 458 -389 577 -464 139 -88 219 -88 433 -3 129 52 194 69 194 50 0 -3 -29
-37 -65 -74 -129 -133 -128 -206 3 -371 54 -67 72 -98 58 -98 -2 0 -60 29
-129 64 -176 90 -264 105 -388 66 -79 -24 -198 -101 -265 -171 -29 -30 -185
-188 -347 -351 -328 -328 -347 -354 -347 -456 0 -48 7 -73 35 -129 43 -87 124
-166 320 -313 93 -70 210 -173 347 -307 114 -112 213 -203 218 -203 19 0 -8
36 -114 152 -140 154 -233 238 -416 378 -233 178 -302 261 -316 382 -12 110
38 185 256 384 317 291 436 351 670 341 136 -5 247 -38 340 -98 60 -38 140
-114 140 -131 0 -5 -38 11 -84 36 -100 55 -126 61 -38 9 35 -21 112 -83 172
-138 183 -170 221 -182 605 -195 291 -10 358 -19 440 -61 87 -45 135 -116 143
-214 6 -79 -12 -137 -74 -243 -63 -105 -92 -186 -104 -288 -14 -123 10 -345
33 -308 3 5 12 61 22 124 27 195 50 255 140 376 93 124 125 210 125 334 0 244
-143 411 -376 440 -43 5 -110 13 -149 17 -38 5 -70 12 -70 17 0 5 26 18 58 29
32 10 57 21 55 23 -2 2 -42 -4 -88 -12 -100 -18 -247 -13 -330 12 -30 9 -84
31 -120 50 -71 37 -391 281 -398 303 -3 8 76 -28 174 -79 323 -169 358 -181
509 -181 117 0 172 14 370 98 164 69 224 77 288 40 55 -32 161 -146 205 -220
18 -30 44 -87 58 -125 48 -138 99 -531 92 -710 -5 -133 -25 -182 -123 -297
-75 -88 -115 -162 -115 -213 0 -43 11 -35 43 30 15 29 56 89 93 133 90 107
121 157 145 235 26 81 27 155 8 605 -20 479 -19 528 10 593 28 63 117 149 193
186 160 78 265 53 506 -120 129 -93 121 -70 -40 106 -231 254 -275 287 -379
277 -49 -4 -96 -23 -267 -106 -283 -138 -357 -152 -499 -99 -113 42 -311 220
-409 367 -52 78 -53 105 -6 92 16 -5 39 -14 51 -20 43 -23 19 -3 -51 44 -151
100 -361 199 -503 236 -78 21 -205 24 -275 8 -25 -6 -107 -35 -182 -65 -262
-104 -346 -99 -615 37 -230 116 -311 166 -504 311 -207 154 -361 260 -334 228z
m1869 -786 c80 -27 149 -101 206 -218 55 -114 80 -184 73 -203 -8 -20 -61 -15
-104 9 -22 12 -67 55 -99 94 -74 89 -117 117 -181 118 -90 2 -127 -66 -90
-164 25 -66 26 -70 4 -70 -44 0 -182 119 -203 176 -18 48 -12 99 18 140 79
108 248 162 376 118z"/>
<path d="M10483 3649 c-111 -55 -195 -226 -178 -364 22 -182 99 -305 254 -407
110 -72 178 -83 245 -39 75 49 105 143 86 268 -32 210 -101 408 -170 487 -66
75 -155 96 -237 55z m134 -110 c132 -82 193 -445 87 -528 -90 -71 -252 5 -325
154 -61 124 -48 253 34 342 61 67 130 78 204 32z"/>
<path d="M10497 3316 c-3 -8 1 -22 8 -33 13 -17 14 -16 15 15 0 33 -13 43 -23
18z"/>
<path d="M12782 3612 c-7 -24 -51 -134 -98 -244 -46 -111 -83 -203 -80 -205 2
-3 35 49 74 114 135 231 123 201 120 295 l-3 83 -13 -43z"/>
<path d="M1000 3319 c69 -34 102 -59 176 -133 180 -181 326 -375 367 -484 30
-80 29 -195 -1 -283 -27 -79 -124 -231 -186 -294 -101 -101 -224 -157 -376
-173 -69 -7 -73 -9 -52 -21 66 -36 189 -22 303 35 122 61 217 143 339 295 115
143 140 192 140 271 0 157 -46 228 -338 519 -205 204 -234 229 -302 262 -41
20 -93 39 -115 42 -35 6 -29 1 45 -36z"/>
<path d="M800 3294 c-145 -28 -314 -125 -440 -254 -161 -163 -191 -318 -92
-462 44 -63 444 -457 508 -500 65 -44 167 -78 234 -78 170 0 362 144 460 345
91 187 67 345 -81 541 -79 104 -218 260 -274 306 -95 78 -223 119 -315 102z
m213 -197 c115 -57 304 -249 371 -377 86 -164 56 -338 -83 -479 -71 -73 -135
-104 -223 -109 -137 -8 -235 52 -381 235 -176 219 -222 311 -214 423 6 102 59
185 161 255 126 86 259 105 369 52z"/>
<path d="M910 3052 c0 -4 29 -27 65 -50 70 -46 177 -159 238 -250 108 -163 97
-336 -29 -451 -76 -69 -144 -83 -264 -54 -23 6 -24 5 -11 -11 22 -26 85 -56
135 -62 152 -21 329 148 343 328 6 76 -16 148 -73 235 -56 86 -228 252 -301
291 -58 30 -103 41 -103 24z"/>
<path d="M777 2956 c-95 -26 -159 -97 -165 -185 -6 -81 30 -157 132 -278 104
-124 171 -175 256 -194 92 -21 195 50 226 157 34 119 -7 231 -136 367 -118
125 -206 163 -313 133z"/>
<path d="M5116 3258 c-8 -13 -30 -54 -48 -93 -31 -65 -33 -77 -33 -175 0 -105
0 -105 48 -204 26 -54 50 -97 52 -94 3 3 -8 49 -25 104 -52 168 -51 289 5 427
25 60 25 72 1 35z"/>
<path d="M5397 3265 c-96 -25 -158 -113 -165 -236 -8 -145 61 -302 193 -435
76 -77 189 -163 200 -152 3 3 -12 17 -34 31 -69 46 -169 147 -217 219 -131
196 -127 404 8 474 48 25 144 17 274 -21 166 -49 252 -63 454 -70 401 -15 540
-58 604 -187 49 -98 31 -232 -47 -349 -20 -30 -44 -65 -53 -79 -9 -14 9 1 39
33 95 100 157 259 143 370 -10 88 -63 154 -163 206 -84 42 -148 52 -398 60
-267 9 -320 18 -565 96 -159 50 -208 58 -273 40z"/>
<path d="M5141 2975 c-2 -80 68 -270 141 -382 89 -136 254 -281 392 -343 94
-43 415 -129 547 -147 82 -11 264 61 384 152 81 61 177 156 303 300 157 178
153 177 -48 -21 -206 -201 -249 -235 -371 -294 -188 -90 -363 -89 -655 5 -145
46 -274 130 -433 280 -106 100 -202 264 -241 412 -13 49 -18 59 -19 38z"/>
<path d="M6095 2989 c-77 -3 -202 -7 -278 -8 -162 -1 -215 -12 -253 -52 -56
-58 -29 -161 82 -306 110 -143 288 -242 496 -274 62 -10 86 -9 148 5 135 30
250 103 313 199 132 200 39 402 -198 431 -85 11 -175 12 -310 5z m372 -36
c103 -30 163 -109 163 -213 0 -131 -103 -252 -261 -307 -84 -29 -220 -33 -313
-8 -87 23 -194 83 -251 140 -57 56 -115 167 -123 233 -9 76 29 96 254 137 238
43 425 49 531 18z"/>
<path d="M5989 2844 c-160 -49 -142 -199 33 -279 114 -52 262 -43 336 21 87
74 74 182 -28 234 -77 39 -252 52 -341 24z"/>
<path d="M12759 2900 c-75 -154 -99 -287 -99 -556 0 -271 33 -431 113 -549
l27 -40 0 62 c0 50 -6 74 -35 131 -55 108 -69 187 -69 407 0 212 15 292 74
410 28 54 31 69 28 135 l-3 75 -36 -75z"/>
<path d="M4816 2785 c103 -189 263 -391 509 -641 122 -124 215 -166 460 -208
201 -35 304 -69 388 -128 33 -23 27 -41 -11 -31 -23 5 -20 0 25 -41 36 -33 56
-60 67 -94 16 -49 39 -301 30 -326 -3 -8 8 -57 25 -110 17 -53 52 -183 78
-288 45 -186 47 -198 47 -348 1 -120 -3 -170 -17 -220 -30 -110 -85 -208 -157
-282 l-66 -68 37 0 c32 0 44 7 83 51 58 64 129 208 157 314 27 104 35 298 20
478 -6 76 -14 238 -17 362 -5 191 -3 232 11 282 31 109 90 178 178 209 67 24
219 44 382 50 195 7 220 10 204 30 -22 27 -51 36 -158 50 -146 19 -208 39
-248 79 -43 43 -43 81 -2 164 60 120 270 311 343 311 9 0 16 4 16 9 0 9 -58
-1 -104 -19 -71 -26 -179 -116 -396 -325 -80 -77 -163 -149 -185 -160 -31 -16
-59 -20 -125 -19 -84 1 -105 5 -285 58 -49 15 -165 43 -256 61 -184 38 -266
66 -305 102 -14 13 -43 32 -64 43 -117 60 -393 322 -530 505 -54 71 -112 146
-130 165 l-32 35 28 -50z"/>
<path d="M7207 2705 c-60 -23 -137 -79 -212 -156 l-70 -73 67 61 c116 106 204
157 297 173 l46 8 -45 0 c-25 0 -62 -6 -83 -13z"/>
<path d="M12780 2498 c-8 -47 -10 -110 -6 -178 13 -200 24 -184 25 38 1 116
-1 212 -3 212 -2 0 -10 -33 -16 -72z"/>
<path d="M4635 2228 c-48 -17 -107 -65 -137 -110 -23 -34 -28 -51 -27 -102 l0
-61 23 50 c49 107 119 158 218 158 46 0 72 -7 132 -37 61 -30 89 -52 153 -123
43 -48 110 -119 148 -158 107 -108 215 -157 500 -226 199 -48 264 -83 337
-181 43 -57 100 -165 142 -269 27 -66 80 -246 69 -236 -3 4 -25 52 -48 107
-72 169 -179 321 -270 383 -28 19 -28 18 6 -19 36 -38 65 -84 54 -84 -3 0 -29
18 -58 39 -79 59 -150 91 -272 121 -195 49 -536 87 -635 71 -157 -26 -197 -82
-290 -401 -28 -96 -85 -259 -126 -362 -41 -102 -76 -201 -79 -220 -7 -44 149
272 236 481 77 183 111 243 171 297 83 75 195 100 398 91 284 -14 483 -105
596 -274 54 -81 61 -87 28 -23 -41 78 -41 79 1 40 l38 -35 -31 46 c-71 106
-202 201 -354 259 -54 21 -7 24 78 5 235 -52 376 -206 494 -540 128 -364 104
-571 -81 -694 -115 -77 -248 -91 -581 -62 -196 17 -264 8 -459 -55 -216 -70
-354 -72 -454 -7 -25 17 -35 20 -26 9 24 -29 103 -64 172 -76 83 -15 149 -7
337 41 176 45 263 49 487 24 166 -19 251 -19 359 0 270 47 420 235 403 505 -5
75 -67 366 -114 528 -8 30 -12 63 -9 75 3 13 -12 61 -41 127 -107 246 -166
295 -426 350 -111 24 -171 46 -162 60 3 6 18 10 33 11 15 0 -2 7 -38 15 -166
35 -254 87 -403 235 -174 174 -267 230 -392 235 -38 2 -83 -1 -100 -8z"/>
<path d="M1785 2073 c-100 -52 -313 -236 -405 -350 -124 -154 -119 -292 17
-434 50 -53 452 -369 469 -369 17 0 -64 90 -206 230 -129 128 -162 167 -190
223 -60 123 -51 237 31 360 56 85 177 214 268 287 50 40 91 74 91 76 0 10 -29
1 -75 -23z"/>
<path d="M1990 2034 c-105 -28 -179 -73 -275 -169 -115 -115 -156 -188 -163
-291 -4 -62 -1 -79 22 -130 39 -84 83 -132 242 -265 86 -71 175 -156 221 -211
151 -178 179 -207 243 -259 65 -52 212 -129 246 -129 10 0 -22 26 -72 59 -120
77 -224 178 -334 321 -85 112 -165 193 -310 313 -196 162 -219 329 -67 494 93
101 194 145 337 147 112 1 197 -24 271 -79 42 -30 230 -241 271 -302 34 -52
141 -108 303 -158 195 -59 233 -75 280 -117 95 -84 127 -204 151 -575 4 -70
10 -103 18 -103 20 0 44 63 55 146 26 193 51 458 51 540 0 90 -6 110 -65 215
-13 25 -76 38 -255 55 -305 29 -384 68 -552 273 -115 140 -171 183 -292 220
-82 25 -240 28 -326 5z"/>
<path d="M4763 1930 c-22 -13 -42 -41 -66 -92 -45 -93 -64 -174 -76 -318 -6
-63 -15 -173 -21 -245 -19 -215 -45 -316 -136 -523 -31 -68 -54 -126 -51 -128
8 -8 137 274 165 361 17 50 44 158 61 240 58 273 98 384 164 453 50 51 90 57
218 31 60 -12 113 -19 116 -15 9 8 -196 203 -246 233 -44 28 -86 29 -128 3z"/>
<path d="M7640 1840 c-19 -19 -22 -30 -18 -76 9 -112 77 -205 299 -409 47 -43
86 -89 102 -120 35 -71 58 -182 65 -315 l6 -115 12 55 c7 30 20 118 29 195 25
211 50 253 147 242 112 -14 236 -97 356 -241 89 -106 262 -286 275 -286 40 0
-207 384 -345 535 -57 63 -118 106 -252 181 -49 27 -132 85 -185 129 -149 125
-189 153 -278 197 -105 52 -179 62 -213 28z"/>
<path d="M1796 1734 c-80 -77 -104 -192 -59 -279 21 -41 104 -125 122 -125 6
0 -8 35 -31 79 -35 67 -41 87 -41 144 -1 55 5 76 34 134 19 37 36 71 37 76 10
20 -29 3 -62 -29z"/>
<path d="M2451 1457 c72 -67 246 -165 379 -212 135 -48 172 -67 226 -117 31
-28 44 -36 44 -24 0 42 55 0 90 -70 23 -47 26 -24 5 37 -38 106 -93 144 -311
219 -92 32 -228 89 -324 137 l-165 82 56 -52z"/>
<path d="M3771 1418 c-1 -22 -17 -67 -43 -115 -23 -43 -58 -109 -77 -147 l-36
-70 0 -195 c0 -326 14 -660 31 -727 21 -83 78 -158 123 -162 l33 -3 -37 38
c-21 21 -51 66 -67 99 -33 71 -42 164 -54 559 -8 270 2 334 79 500 50 108 68
187 54 241 -3 10 -5 3 -6 -18z"/>
<path d="M7510 1343 c132 -127 187 -193 241 -296 41 -76 49 -84 23 -21 -46
109 -180 268 -324 383 -30 24 -3 -6 60 -66z"/>
<path d="M6992 1420 c-113 -24 -214 -96 -256 -183 -51 -106 -68 -221 -86 -587
-6 -124 -18 -269 -25 -322 -15 -104 -54 -233 -86 -284 -24 -40 -24 -46 4 -42
16 2 30 19 50 62 46 94 75 232 97 466 32 349 55 456 126 585 83 152 188 226
350 249 l89 13 -45 21 c-53 24 -156 35 -218 22z"/>
<path d="M2170 1297 c16 -28 42 -90 58 -137 17 -47 37 -101 46 -121 21 -50
110 -145 171 -184 48 -31 153 -75 177 -75 12 0 -62 50 -132 89 -46 25 -113 90
-144 140 -14 22 -46 86 -70 142 -48 108 -89 174 -117 189 -13 7 -10 -2 11 -43z"/>
<path d="M5061 1314 c-79 -40 -146 -114 -196 -219 -42 -87 -119 -294 -112
-301 2 -2 20 42 41 99 45 122 112 251 161 311 20 24 62 61 93 82 94 63 97 70
13 28z"/>
<path d="M5263 1305 c-164 -36 -281 -135 -364 -310 -154 -322 -127 -531 73
-579 60 -14 488 -56 574 -56 229 0 372 62 424 182 45 105 9 318 -83 492 -41
78 -147 186 -215 220 -120 61 -275 80 -409 51z m385 -96 c116 -56 220 -205
263 -378 53 -212 -13 -339 -201 -387 -57 -14 -86 -15 -236 -5 -285 18 -482 60
-532 114 -57 60 -66 148 -26 265 81 244 258 382 489 382 128 0 229 -41 314
-129 l55 -56 -32 47 c-36 53 -96 106 -168 150 l-49 30 38 -6 c21 -3 60 -15 85
-27z"/>
<path d="M5393 1021 c-44 -11 -77 -34 -110 -78 -36 -47 -40 -132 -8 -175 33
-45 109 -78 180 -78 164 0 236 128 142 252 -52 68 -128 97 -204 79z"/>
<path d="M5423 503 c9 -2 25 -2 35 0 9 3 1 5 -18 5 -19 0 -27 -2 -17 -5z"/>
<path d="M2423 1255 c-65 -47 -39 -198 49 -282 73 -71 234 -112 322 -83 95 31
126 98 82 174 -69 118 -376 248 -453 191z"/>
<path d="M11321 1145 c-219 -57 -397 -185 -441 -319 -39 -119 39 -315 262
-661 101 -156 111 -169 127 -164 6 2 -26 65 -71 139 -151 252 -225 440 -216
553 3 36 15 81 27 106 51 98 182 185 332 220 178 42 475 64 591 45 42 -7 42
-23 0 -26 -15 0 52 -5 148 -9 248 -11 345 -42 442 -141 147 -151 191 -436 93
-603 -13 -23 -59 -79 -102 -126 -75 -80 -123 -140 -123 -153 0 -3 7 -6 15 -6
8 0 15 4 15 9 0 5 40 52 90 105 166 179 185 222 184 411 -1 112 -5 141 -27
211 -61 185 -187 313 -348 352 -140 35 -620 45 -851 19 -81 -9 -160 -17 -175
-17 -45 0 -13 21 80 51 102 34 74 36 -52 4z"/>
<path d="M7109 1096 c-112 -40 -187 -131 -224 -272 -34 -130 -38 -262 -19
-552 l18 -272 28 0 c24 0 28 3 23 23 -13 57 -35 364 -35 481 1 167 19 271 64
361 58 114 137 185 232 206 61 14 68 24 23 33 -45 9 -69 7 -110 -8z"/>
<path d="M12600 1026 c0 -3 16 -31 35 -63 83 -137 127 -303 128 -488 1 -108
-2 -127 -26 -185 -21 -53 -23 -60 -7 -40 99 127 64 524 -61 714 -27 39 -69 78
-69 62z"/>
<path d="M1945 1010 c22 -39 127 -173 193 -247 41 -46 110 -110 154 -143 78
-59 215 -136 225 -127 7 8 -17 25 -99 71 -120 68 -200 138 -330 290 -132 154
-156 181 -143 156z"/>
<path d="M1115 981 c147 -53 267 -133 419 -280 118 -115 114 -94 -6 29 -85 88
-157 144 -249 194 -69 38 -171 77 -198 75 -9 0 7 -8 34 -18z"/>
<path d="M4102 888 c-69 -52 -88 -73 -112 -123 -37 -75 -50 -142 -50 -262 0
-168 42 -297 139 -425 62 -82 83 -98 34 -26 -51 75 -110 202 -129 278 -12 48
-15 96 -12 190 3 114 6 131 34 191 18 36 57 94 90 130 74 80 98 109 93 109 -3
0 -42 -28 -87 -62z"/>
<path d="M11905 855 c-11 -3 -94 -9 -185 -14 -219 -14 -302 -39 -402 -123 -27
-22 -48 -33 -48 -26 -1 7 -7 -2 -15 -21 -55 -126 -5 -332 139 -574 48 -80 62
-97 82 -97 13 0 24 2 24 5 0 4 -23 44 -51 91 -28 46 -67 123 -87 172 -29 73
-36 103 -40 182 -4 83 -2 102 18 148 28 65 92 123 169 154 51 20 73 22 256 23
135 0 199 -3 198 -11 -1 -7 28 -9 86 -6 191 9 305 -69 304 -208 -1 -69 -14
-101 -94 -226 -60 -96 -169 -298 -169 -315 0 -5 9 -9 19 -9 14 0 31 22 61 78
23 43 71 118 107 167 115 159 132 189 148 253 37 144 -34 275 -181 332 -49 19
-81 24 -189 26 -71 1 -139 1 -150 -1z"/>
<path d="M1877 675 c54 -80 228 -248 383 -371 69 -54 157 -126 195 -159 87
-76 190 -148 204 -144 12 5 -185 170 -379 318 -85 65 -192 161 -289 260 -131
133 -148 147 -114 96z"/>
<path d="M963 534 c3 -27 15 -94 27 -149 19 -84 21 -118 16 -210 -4 -60 -9
-125 -12 -143 -6 -33 -6 -33 27 -30 33 3 34 4 46 68 17 92 16 245 -2 315 -22
84 -65 174 -88 187 -19 10 -19 8 -14 -38z"/>
<path d="M3578 530 c-3 -8 -9 -46 -12 -83 -3 -37 -19 -121 -37 -186 l-31 -118
22 -44 c37 -74 67 -99 118 -99 l44 0 -28 32 c-54 65 -59 87 -64 308 -3 113 -8
198 -12 190z"/>
<path d="M2395 503 c6 -6 63 -45 128 -87 71 -47 157 -115 216 -171 54 -52 101
-92 103 -89 3 3 38 -11 78 -31 40 -20 75 -34 78 -31 3 3 1 6 -5 6 -6 0 -71 55
-145 123 -129 117 -144 127 -299 206 -90 46 -159 79 -154 74z"/>
<path d="M6057 468 c-39 -65 -88 -105 -182 -149 -115 -54 -206 -70 -460 -79
-239 -10 -270 -15 -460 -80 -91 -32 -143 -43 -215 -49 -95 -7 -95 -7 -42 -15
73 -11 135 0 302 52 l145 45 310 7 c332 7 357 11 468 66 92 47 171 152 165
217 l-3 32 -28 -47z"/>
<path d="M6320 468 c-21 -83 -62 -177 -102 -233 -69 -97 -197 -177 -341 -215
l-72 -19 93 0 c84 -1 98 2 153 30 150 75 255 235 283 432 9 59 0 61 -14 5z"/>
<path d="M1220 452 c-21 -21 -32 -48 -45 -108 -9 -43 -31 -139 -48 -212 l-33
-132 31 0 c29 0 35 6 71 77 81 159 157 222 253 209 63 -9 157 -55 253 -123
127 -92 129 -91 20 16 -122 119 -251 218 -346 266 -85 43 -118 44 -156 7z"/>
<path d="M6502 368 c-27 -112 -87 -239 -147 -313 l-45 -55 27 0 c63 0 159 211
188 413 4 26 6 47 4 47 -3 0 -14 -42 -27 -92z"/>
<path d="M11680 400 c-51 -51 8 -163 76 -146 29 8 46 38 46 83 0 69 -76 109
-122 63z"/>
<path d="M6697 312 c-10 -78 -50 -219 -78 -273 l-20 -41 23 4 c18 2 27 15 41
56 22 68 50 239 45 283 -2 26 -5 19 -11 -29z"/>
<path d="M3911 344 c0 -11 3 -14 6 -6 3 7 2 16 -1 19 -3 4 -6 -2 -5 -13z"/>
<path d="M2290 213 c176 -170 226 -213 251 -213 10 0 19 3 18 8 -1 13 -345
304 -399 337 -8 5 50 -54 130 -132z"/>
<path d="M230 326 c-36 -8 -102 -28 -147 -46 l-83 -31 0 -61 c0 -33 3 -58 8
-56 4 2 32 15 62 30 87 43 172 61 300 62 105 1 120 -1 165 -24 56 -29 108 -95
125 -161 10 -37 13 -39 51 -39 l41 0 -7 37 c-23 126 -94 222 -197 268 -53 24
-78 29 -158 32 -52 1 -124 -4 -160 -11z"/>
<path d="M3925 290 c9 -56 58 -150 114 -220 29 -36 57 -67 63 -69 6 -2 -10 22
-36 54 -58 72 -93 130 -123 209 -17 44 -22 51 -18 26z"/>
<path d="M10588 300 c-49 -26 -85 -76 -114 -156 -28 -77 -32 -121 -4 -49 37
94 118 164 192 165 75 0 224 -94 328 -207 32 -35 56 -53 67 -51 29 6 -228 258
-296 291 -65 32 -121 34 -173 7z"/>
<path d="M11210 315 c0 -5 34 -79 76 -162 58 -116 81 -153 95 -153 11 0 19 2
19 4 0 3 -154 267 -179 306 -6 8 -10 11 -11 5z"/>
<path d="M11467 313 c-17 -27 36 -149 131 -301 6 -9 24 -12 50 -10 l41 3 -66
85 c-36 47 -85 118 -108 158 -24 40 -45 69 -48 65z"/>
<path d="M12057 205 c-36 -66 -78 -139 -92 -163 l-26 -42 38 0 39 0 58 145
c31 80 56 153 54 163 -2 10 -31 -32 -71 -103z"/>
<path d="M1840 294 c1 -5 26 -29 57 -54 31 -25 105 -89 164 -143 126 -114 187
-137 69 -25 -112 105 -291 242 -290 222z"/>
<path d="M11082 148 c51 -81 99 -147 106 -147 6 -1 12 2 12 7 0 9 -173 249
-195 271 -9 9 26 -50 77 -131z"/>
<path d="M6976 200 c15 -82 63 -140 117 -140 35 0 27 15 -12 23 -33 7 -69 49
-95 112 l-16 40 6 -35z"/>
<path d="M12394 138 c-39 -40 -80 -88 -93 -105 -20 -30 -21 -33 -4 -33 11 0
30 19 47 46 16 25 51 72 78 105 28 32 48 59 46 59 -3 0 -36 -33 -74 -72z"/>
<path d="M71 113 c-69 -35 -71 -37 -71 -75 l0 -38 260 0 c160 0 260 4 260 10
0 22 -63 79 -109 99 -51 22 -155 40 -227 41 -29 0 -64 -12 -113 -37z"/>
<path d="M10635 138 c-50 -27 -126 -120 -112 -135 3 -2 8 5 12 17 12 36 74 98
111 110 65 22 141 -6 238 -85 71 -58 110 -61 46 -4 -67 59 -172 109 -229 109
-25 0 -55 -6 -66 -12z"/>
<path d="M2025 73 c54 -64 85 -88 85 -65 0 4 -33 37 -72 72 l-73 65 60 -72z"/>
<path d="M12680 20 c-14 -11 -20 -20 -14 -20 6 0 19 9 29 20 23 25 17 25 -15
0z"/>
</g>
</svg>
