<svg xmlns="http://www.w3.org/2000/svg" viewBox="0 0 25.5 18.6">
    <defs>
        <style>
            .cls-1 {
            fill: #d69213;
            }

            .cls-2 {
            fill: #c57615;
            }

            .cls-3 {
            fill: #edb300;
            }

            .cls-4 {
            fill: #fbcf00;
            }

            .cls-5 {
            fill: #ffec00;
            }

            .cls-6 {
            fill: #d9a10c;
            }

            .cls-7 {
            fill: #c47914;
            }

            .cls-8 {
            isolation: isolate;
            }

            .cls-9 {
            fill: #dcb200;
            }

            .cls-10 {
            fill: #a9720e;
            }

            .cls-11 {
            fill: #ffe727;
            }
        </style>
    </defs>
    <g id="Calque_2" data-name="Calque 2">
        <g id="Calque_1-2" data-name="Calque 1">
            <path class="cls-1" d="M25.4,7.3v3.9c0,1.9-1.2,3.8-3.7,5.2-5,2.9-13,2.9-18,0C1.3,15,0,13.1,0,11.2V7.4Z"/>
            <path class="cls-2"
                  d="M0,7.4v3.8c0,1.9,1.3,3.8,3.8,5.2a13.2,13.2,0,0,0,3.9,1.5V7.4Zm16-.1v11A15,15,0,0,0,20.4,17V7.3Z"/>
            <path class="cls-3" d="M10.1,7.4v11l2.9.2V7.4Z"/>
            <path class="cls-4" d="M21.7,2.1c5,2.9,5,7.5.1,10.4s-13,2.9-18,0S-1.2,5,3.7,2.1,16.7-.7,21.7,2.1Z"/>
            <path class="cls-5"
                  d="M23.3,3.3c2.9,2.8,2.3,6.5-1.9,9s-13,2.9-18,0a11.1,11.1,0,0,1-1.6-1.1,9.4,9.4,0,0,0,1.9,1.4c5,2.9,13,2.9,18,0S26.6,6.1,23.3,3.3Z"/>
            <path class="cls-6" d="M19.9,3.2c4,2.3,4,6,0,8.3s-10.3,2.3-14.3,0-4-6,0-8.3S15.9.9,19.9,3.2Z"/>
            <path class="cls-7"
                  d="M5.5,4C9.4,1.7,15.8,1.7,19.8,4a5.4,5.4,0,0,1,3,3.8c.2-1.6-.8-3.3-3-4.6C15.8.9,9.4.9,5.5,3.2,3.4,4.4,2.4,6.1,2.6,7.7A5.6,5.6,0,0,1,5.5,4Z"/>
            <g class="cls-8">
                <path class="cls-9" d="M18,4.3v.6l-1,.6V4.9Z"/>
                <path class="cls-10" d="M14.2,6h.4V5.5H14v.6h.2C14.1,6,14.1,6,14.2,6Z"/>
                <path class="cls-9" d="M15.1,5.8v.6l-.9.5V6.3Zm3.4.8v.6L16,7.7V7.1Z"/>
                <path class="cls-10"
                      d="M15.8,6.6l-.3-.4L15.3,6l-.2-.2v.6c.2.1.3.3.4.4l.3.4c.1.2.2.3.2.5V7.1C16,6.9,15.9,6.8,15.8,6.6Z"/>
                <g class="cls-8">
                    <path class="cls-10"
                          d="M11.7,7.1v.6l-.4-.5-.5-.7a1.1,1.1,0,0,1-.1-.5V5.4a.9.9,0,0,0,.1.5l.5.7.4.5"/>
                </g>
                <g class="cls-8">
                    <path class="cls-10" d="M12.2,7.9V7.6a.4.4,0,0,1,.1.3"/>
                </g>
                <path class="cls-9" d="M12.1,7.5v.7l-.8.4V8Z"/>
                <g class="cls-8">
                    <path class="cls-10"
                          d="M8.9,8.6v.6a5.2,5.2,0,0,1-1.1-1,3,3,0,0,1-.7-1V6.6a6.1,6.1,0,0,0,.7,1,5.2,5.2,0,0,0,1.1,1"/>
                </g>
                <path class="cls-10" d="M15.3,8.1v.4h-.7l-.4.2H10.7l-.6-.2-.5-.2v.6l.5.2.5.2h3.5l.4-.2h.8Z"/>
                <path class="cls-9" d="M9.7,9.1v.6l-1.2.7V9.8Z"/>
                <path class="cls-10" d="M8.5,9.8v.6L7.7,10V9.3Z"/>
                <path class="cls-11"
                      d="M15.1,8.6a2.2,2.2,0,0,1-.7.6l-1.2.5H12l-1.2-.2L9.7,9.2l-1.2.7-.8-.5,1.2-.7A11.4,11.4,0,0,1,7.8,7.6a2.3,2.3,0,0,1-.7-1l2.6-.5.3.5a.5.5,0,0,0,.3.5c.2.2.3.4.5.5l.9-.5-.4-.5-.5-.7a.7.7,0,0,1-.1-.6c0-.2.1-.3.2-.5s.3-.3.6-.5a4.3,4.3,0,0,1,1.2-.5h2.4l1.1.4,1-.6.8.7-1,.6.5.4.4.5.3.4.3.4L16,7.1l-.2-.4-.3-.4-.4-.4-.9.5h.1v.2l.6.7.3.6A.7.7,0,0,1,15.1,8.6Zm-3.3-.5h.3c.1-.1.1-.1.1-.2V7.5l-.8.5h.5m2-2.2.8-.4h-.8c-.1.1-.2.1-.1.2v.2"/>
            </g>
        </g>
    </g>
</svg>
